<svg width="24" height="24" viewBox="0 0 24 24" fill="none" xmlns="http://www.w3.org/2000/svg">
<g clip-path="url(#clip0_29_31)">
<path fill-rule="evenodd" clip-rule="evenodd" d="M21 6.75V21C21 21.7956 20.6839 22.5587 20.1213 23.1213C19.5587 23.6839 18.7956 24 18 24H16.5V22.5H18C18.3978 22.5 18.7794 22.342 19.0607 22.0607C19.342 21.7794 19.5 21.3978 19.5 21V6.75H16.5C15.9033 6.75 15.331 6.51295 14.909 6.09099C14.4871 5.66903 14.25 5.09674 14.25 4.5V1.5H6C5.60218 1.5 5.22064 1.65804 4.93934 1.93934C4.65804 2.22064 4.5 2.60218 4.5 3V16.5H3V3C3 2.20435 3.31607 1.44129 3.87868 0.87868C4.44129 0.316071 5.20435 0 6 0H14.25L21 6.75ZM5.0955 22.2615C5.10409 22.4978 5.16204 22.7298 5.26563 22.9424C5.36922 23.155 5.51616 23.3436 5.697 23.496C5.892 23.658 6.131 23.784 6.414 23.874C6.698 23.965 7.0305 24.0105 7.4115 24.0105C7.9185 24.0105 8.348 23.9315 8.7 23.7735C9.054 23.6155 9.3235 23.3955 9.5085 23.1135C9.6955 22.8295 9.789 22.5015 9.789 22.1295C9.789 21.7935 9.722 21.5135 9.588 21.2895C9.45076 21.0647 9.25676 20.88 9.0255 20.754C8.76007 20.6066 8.47381 20.5004 8.1765 20.439L7.245 20.223C7.02588 20.1812 6.81886 20.091 6.639 19.959C6.57056 19.9062 6.5154 19.8382 6.4779 19.7603C6.44039 19.6825 6.4216 19.5969 6.423 19.5105C6.423 19.2765 6.5155 19.0845 6.7005 18.9345C6.8885 18.7825 7.1445 18.7065 7.4685 18.7065C7.6825 18.7065 7.8675 18.7405 8.0235 18.8085C8.16786 18.8657 8.29498 18.9592 8.3925 19.08C8.48482 19.1914 8.54682 19.3247 8.5725 19.467H9.6975C9.67815 19.1617 9.57428 18.8677 9.3975 18.618C9.20848 18.3482 8.94906 18.1355 8.6475 18.003C8.27936 17.8408 7.87962 17.7629 7.4775 17.775C7.0385 17.775 6.6505 17.85 6.3135 18C5.9765 18.149 5.713 18.3595 5.523 18.6315C5.333 18.9045 5.238 19.224 5.238 19.59C5.238 19.892 5.299 20.154 5.421 20.376C5.545 20.599 5.721 20.7825 5.949 20.9265C6.177 21.0695 6.4465 21.176 6.7575 21.246L7.6845 21.462C7.9945 21.535 8.226 21.6315 8.379 21.7515C8.45346 21.8087 8.51306 21.883 8.55274 21.9681C8.59243 22.0533 8.61104 22.1467 8.607 22.2405C8.61039 22.3952 8.56585 22.5471 8.4795 22.6755C8.38285 22.8071 8.24993 22.9077 8.097 22.965C7.93 23.035 7.7235 23.07 7.4775 23.07C7.3025 23.07 7.1425 23.05 6.9975 23.01C6.86452 22.9743 6.73868 22.9159 6.6255 22.8375C6.52576 22.7727 6.44036 22.6882 6.37457 22.5891C6.30878 22.4901 6.264 22.3786 6.243 22.2615H5.0955ZM1.209 20.5395C1.209 20.1665 1.26 19.85 1.362 19.59C1.45113 19.3504 1.60865 19.1423 1.815 18.9915C2.02485 18.8495 2.27426 18.7776 2.5275 18.786C2.7525 18.786 2.9515 18.8345 3.1245 18.9315C3.29355 19.0218 3.43464 19.1567 3.5325 19.3215C3.63705 19.495 3.69875 19.6909 3.7125 19.893H4.86V19.785C4.85005 19.5087 4.78277 19.2375 4.66244 18.9886C4.54211 18.7396 4.37135 18.5184 4.161 18.339C3.94645 18.155 3.69696 18.0163 3.4275 17.931C3.13506 17.8308 2.8276 17.7816 2.5185 17.7855C1.9845 17.7855 1.529 17.897 1.152 18.12C0.777 18.342 0.491 18.658 0.294 19.068C0.099 19.478 0.001 19.9675 0 20.5365V21.2835C0 21.8515 0.0965 22.3395 0.2895 22.7475C0.4865 23.1545 0.7725 23.4675 1.1475 23.6865C1.5225 23.9035 1.9795 24.012 2.5185 24.012C2.9575 24.012 3.35 23.93 3.696 23.766C4.042 23.602 4.317 23.375 4.521 23.085C4.72794 22.7871 4.84554 22.4364 4.86 22.074V21.96H3.714C3.6998 22.1531 3.63907 22.3399 3.537 22.5045C3.43703 22.6638 3.29613 22.7933 3.129 22.8795C2.94122 22.9687 2.73537 23.0134 2.5275 23.01C2.27413 23.0167 2.02451 22.9478 1.8105 22.812C1.6049 22.666 1.44849 22.4609 1.362 22.224C1.25236 21.9229 1.20045 21.6038 1.209 21.2835V20.5395ZM10.17 22.935C10.0714 22.7234 10.0148 22.4947 10.0035 22.2615H11.1495C11.1705 22.3786 11.2153 22.4901 11.2811 22.5891C11.3469 22.6882 11.4323 22.7727 11.532 22.8375C11.638 22.9105 11.763 22.9675 11.907 23.0085C12.049 23.0495 12.2085 23.07 12.3855 23.07C12.6305 23.07 12.837 23.035 13.005 22.965C13.1579 22.9077 13.2909 22.8071 13.3875 22.6755C13.4739 22.5471 13.5184 22.3952 13.515 22.2405C13.5189 22.1465 13.5 22.053 13.4601 21.9679C13.4201 21.8828 13.3602 21.8086 13.2855 21.7515C13.1335 21.6315 12.902 21.535 12.591 21.462L11.664 21.2475C11.3781 21.1876 11.1046 21.079 10.8555 20.9265C10.6356 20.7914 10.4542 20.6017 10.329 20.376C10.2034 20.1333 10.14 19.8632 10.1445 19.59C10.1445 19.224 10.2395 18.9045 10.4295 18.6315C10.6195 18.3595 10.883 18.1485 11.22 17.9985C11.557 17.8485 11.9455 17.774 12.3855 17.775C12.8415 17.775 13.231 17.851 13.554 18.003C13.88 18.156 14.13 18.361 14.304 18.618C14.484 18.873 14.584 19.156 14.604 19.467H13.479C13.4533 19.3247 13.3913 19.1914 13.299 19.08C13.2015 18.9592 13.0744 18.8657 12.93 18.8085C12.7543 18.7358 12.5651 18.701 12.375 18.7065C12.051 18.7065 11.795 18.7825 11.607 18.9345C11.5189 19.002 11.448 19.0894 11.4 19.1895C11.3521 19.2895 11.3284 19.3995 11.331 19.5105C11.331 19.6905 11.4025 19.8405 11.5455 19.9605C11.7255 20.0919 11.9325 20.1816 12.1515 20.223L13.083 20.4375C13.409 20.5125 13.692 20.618 13.932 20.754C14.172 20.89 14.3595 21.069 14.4945 21.291C14.6295 21.513 14.697 21.793 14.697 22.131C14.697 22.501 14.603 22.829 14.415 23.115C14.2164 23.4095 13.9351 23.6386 13.6065 23.7735C13.2555 23.9315 12.8265 24.0105 12.3195 24.0105C11.9385 24.0105 11.606 23.9655 11.322 23.8755C11.0607 23.7973 10.8172 23.6689 10.605 23.4975C10.4208 23.3438 10.2724 23.1519 10.17 22.935Z" fill="#0F172A"/>
</g>
<defs>
<clipPath id="clip0_29_31">
<rect width="24" height="24" fill="white"/>
</clipPath>
</defs>
</svg>
