<svg width="24" height="24" viewBox="0 0 24 24" fill="none" xmlns="http://www.w3.org/2000/svg">
<path fill-rule="evenodd" clip-rule="evenodd" d="M21 6.75V16.5H19.5V6.75H16.5C15.9033 6.75 15.331 6.51295 14.909 6.09099C14.4871 5.66903 14.25 5.09674 14.25 4.5V1.5H6C5.60218 1.5 5.22064 1.65804 4.93934 1.93934C4.65804 2.22064 4.5 2.60218 4.5 3V16.5H3V3C3 2.20435 3.31607 1.44129 3.87868 0.87868C4.44129 0.316071 5.20435 0 6 0H14.25L21 6.75ZM6.396 17.775V23.7735H5.2095V21.2025H2.685V23.7735H1.5V17.775H2.6865V20.214H5.2095V17.775H6.396ZM9.7725 18.768V23.7735H8.5815V18.768H6.882V17.775H11.478V18.768H9.7725ZM13.0365 23.7735V19.7835H13.0935L14.5215 23.022H15.2955L16.7145 19.782H16.7715V23.7735H17.844V17.775H16.644L14.934 21.669H14.895L13.185 17.775H11.9775V23.7735H13.0365ZM22.6455 22.7625V23.7735H18.915V17.775H20.1V22.7625H22.6455Z" fill="#0F172A"/>
</svg>
