<svg width="24" height="24" viewBox="0 0 24 24" fill="none" xmlns="http://www.w3.org/2000/svg">
<g clip-path="url(#clip0_29_25)">
<path fill-rule="evenodd" clip-rule="evenodd" d="M21.0001 6.75V21C21.0001 21.7956 20.684 22.5587 20.1214 23.1213C19.5588 23.6839 18.7957 24 18.0001 24H12.0001V22.5H18.0001C18.3979 22.5 18.7794 22.342 19.0607 22.0607C19.342 21.7794 19.5001 21.3978 19.5001 21V6.75H16.5001C15.9033 6.75 15.331 6.51295 14.9091 6.09099C14.4871 5.66903 14.2501 5.09674 14.2501 4.5V1.5H6.00008C5.60225 1.5 5.22072 1.65804 4.93942 1.93934C4.65811 2.22064 4.50008 2.60218 4.50008 3V16.5H3.00008V3C3.00008 2.20435 3.31615 1.44129 3.87876 0.87868C4.44136 0.316071 5.20443 0 6.00008 0H14.2501L21.0001 6.75ZM4.77908 22.935C4.68043 22.7234 4.62388 22.4947 4.61258 22.2615H5.76008C5.78108 22.3786 5.82586 22.4901 5.89165 22.5891C5.95744 22.6882 6.04284 22.7727 6.14258 22.8375C6.24758 22.9105 6.37208 22.9675 6.51608 23.0085C6.65908 23.0495 6.81858 23.07 6.99458 23.07C7.24058 23.07 7.44708 23.035 7.61408 22.965C7.76701 22.9077 7.89993 22.8071 7.99658 22.6755C8.08293 22.5471 8.12746 22.3952 8.12408 22.2405C8.12794 22.1465 8.1091 22.053 8.06915 21.9679C8.0292 21.8828 7.96931 21.8086 7.89458 21.7515C7.74358 21.6315 7.51258 21.535 7.20158 21.462L6.27308 21.2475C5.98718 21.1876 5.7137 21.079 5.46458 20.9265C5.24463 20.7914 5.06328 20.6017 4.93808 20.376C4.81244 20.1333 4.74904 19.8632 4.75358 19.59C4.75358 19.224 4.84858 18.9045 5.03858 18.6315C5.22858 18.3595 5.49258 18.1485 5.83058 17.9985C6.16658 17.8485 6.55458 17.774 6.99458 17.775C7.45158 17.775 7.84158 17.851 8.16458 18.003C8.48858 18.156 8.73858 18.361 8.91458 18.618C9.09458 18.873 9.19458 19.156 9.21458 19.467H8.08958C8.0639 19.3247 8.00189 19.1914 7.90958 19.08C7.81164 18.959 7.68398 18.8654 7.53908 18.8085C7.36379 18.736 7.17519 18.7012 6.98558 18.7065C6.66058 18.7065 6.40408 18.7825 6.21608 18.9345C6.12798 19.002 6.05706 19.0894 6.0091 19.1895C5.96114 19.2895 5.93749 19.3995 5.94008 19.5105C5.94008 19.6905 6.01158 19.8405 6.15458 19.9605C6.33501 20.0921 6.54256 20.1818 6.76208 20.223L7.69208 20.4375C8.01908 20.5125 8.30208 20.618 8.54108 20.754C8.78108 20.89 8.96858 21.069 9.10358 21.291C9.23858 21.513 9.30608 21.793 9.30608 22.131C9.30608 22.501 9.21208 22.829 9.02408 23.115C8.82545 23.4095 8.54414 23.6386 8.21558 23.7735C7.86458 23.9315 7.43558 24.0105 6.92858 24.0105C6.54758 24.0105 6.21508 23.9655 5.93108 23.8755C5.6698 23.7973 5.42626 23.6689 5.21408 23.4975C5.02992 23.3438 4.88147 23.1519 4.77908 22.935ZM0.123076 22.8855C0.0396617 22.662 -0.00202871 22.4251 7.58818e-05 22.1865H1.14758C1.15166 22.3282 1.18918 22.467 1.25708 22.5915C1.32627 22.7092 1.42625 22.8057 1.54626 22.8707C1.66626 22.9357 1.80173 22.9668 1.93808 22.9605C2.22308 22.9605 2.43408 22.8785 2.57108 22.7145C2.70908 22.5495 2.77808 22.3165 2.77808 22.0155V17.898H3.96308V21.9855C3.96308 22.6455 3.78458 23.148 3.42758 23.493C3.07358 23.838 2.58158 24.0105 1.95158 24.0105C1.66088 24.0156 1.37169 23.9678 1.09808 23.8695C0.868464 23.7815 0.660313 23.6455 0.487576 23.4705C0.326247 23.3033 0.202038 23.104 0.123076 22.8855Z" fill="#0F172A"/>
</g>
<defs>
<clipPath id="clip0_29_25">
<rect width="24" height="24" fill="white"/>
</clipPath>
</defs>
</svg>
